<?xml version="1.0" encoding="UTF-8"?>
<svg width="40px" height="40px" viewBox="0 0 40 40" version="1.1" xmlns="http://www.w3.org/2000/svg" xmlns:xlink="http://www.w3.org/1999/xlink">
    <!-- Generator: Sketch 54.1 (76490) - https://sketchapp.com -->
    <title>Artboard Copy 11</title>
    <desc>Created with Sketch.</desc>
    <g id="Artboard-Copy-11" stroke="none" stroke-width="1" fill="none" fill-rule="evenodd">
        <g id="Group" transform="translate(5.000000, 3.000000)" fill="#85BF4F">
            <path d="M13.9193133,0.362729001 C14.755449,-0.119821729 15.8445398,-0.121996383 16.6799113,0.362729001 C20.8826672,2.75721213 25.0867816,5.14792813 29.2888582,7.54386674 C30.079226,7.99275313 30.6078926,8.87960983 30.5999108,9.79784491 L30.5999108,24.2039902 C30.6057698,25.1602389 30.0248818,26.0682857 29.1910387,26.5069837 C25.0020387,28.8883162 20.8151615,31.272474 16.6269257,33.6538064 C15.7735528,34.1457578 14.6626394,34.1078298 13.8358441,33.5755531 C12.5799848,32.8414787 11.3220026,32.1110859 10.0660583,31.3776964 C9.80936709,31.2234158 9.5200694,31.100642 9.33886562,30.8497862 C9.49901104,30.6320639 9.78550661,30.6049235 10.0182524,30.5098894 C10.5424187,30.3417389 11.0239589,30.0719619 11.505499,29.8101471 C11.6272639,29.7261575 11.7759461,29.7583493 11.8927011,29.8335204 C12.9665924,30.45441 14.0310585,31.093279 15.1085162,31.7081754 C15.338375,31.8419938 15.5711208,31.6643399 15.7676089,31.5538948 C19.8783193,29.2113466 23.9940396,26.8777024 28.1039859,24.5344692 C28.2563193,24.4605823 28.3404679,24.2975688 28.3281555,24.1293328 C28.3309576,19.377113 28.3288348,14.6240371 28.329599,9.8717318 C28.3470061,9.68089301 28.2374687,9.50546516 28.0662846,9.42729746 C23.8918896,7.05694957 19.7195325,4.68293731 15.5458168,2.31194731 C15.3978139,2.2093447 15.2024297,2.20906217 15.0541721,2.31122813 C10.8803714,4.68293731 6.70883797,7.05912423 2.53510527,9.42935225 C2.36456654,9.50760557 2.25011266,9.68020808 2.27041529,9.8717318 C2.27112856,14.6240371 2.27041529,19.377113 2.27041529,24.1301033 C2.25558953,24.2981681 2.34616595,24.457757 2.49739553,24.5301028 C3.61117041,25.166917 4.72639731,25.7991936 5.84089395,26.4338674 C6.46876419,26.7746203 7.23966994,26.9771029 7.93142853,26.7160588 C8.54187468,26.4952543 8.96974995,25.8671729 8.95811691,25.2136635 C8.96389097,20.4890979 8.95522988,15.7638473 8.96244746,11.0400522 C8.94724808,10.8302922 9.14450036,10.6570047 9.3467625,10.6767821 C9.88196748,10.6731006 10.4177668,10.6695047 10.9529718,10.6782376 C11.1762923,10.6731006 11.3300693,10.8989565 11.3024726,11.1102576 C11.3002649,15.8647033 11.3081618,20.6193203 11.2988214,25.3736804 C11.3002649,26.640802 10.7839955,28.0195673 9.62154011,28.6396007 C8.18952079,29.387545 6.4195233,29.2288979 5.00478371,28.51169 C3.78003637,27.895338 2.61124652,27.1679417 1.40823685,26.5076686 C0.572236995,26.0713678 -0.00578947295,25.1596396 0.000103470932,24.2040758 L0.000103470932,9.79784491 C-0.0086680147,8.860603 0.541014582,7.95763331 1.35599004,7.51528801 C5.5442598,5.13206343 9.73184176,2.74704091 13.9193133,0.362729001" id="Fill-1"></path>
            <path d="M17.5334952,10.2801878 C19.3728139,10.1610745 21.3419246,10.2096658 22.9971575,11.121033 C24.2786612,11.8195444 24.9890972,13.2853689 25.0116697,14.7173945 C24.9759299,14.9105559 24.7751713,15.0171128 24.591855,15.0038685 C24.0581516,15.0031804 23.5243627,15.0111787 22.9907448,15.0002564 C22.7643356,15.0090286 22.632748,14.7990108 22.6043614,14.5977652 C22.4509708,13.9125843 22.0794647,13.2339395 21.4382853,12.9034324 C20.454072,12.4078006 19.312877,12.4327413 18.2395706,12.4430616 C17.4561159,12.4848588 16.6135794,12.5531447 15.949742,13.0165255 C15.4401501,13.3675872 15.2853916,14.0762468 15.4672543,14.6470446 C15.6387713,15.0568459 16.1090322,15.1890316 16.4938766,15.310897 C18.7105155,15.8940791 21.059426,15.8360275 23.2337415,16.6034267 C24.1339919,16.9163034 25.0145768,17.5245122 25.322726,18.4725164 C25.7257823,19.7432016 25.5491352,21.2619176 24.6503384,22.2819918 C23.9215194,23.121375 22.8600123,23.5783056 21.8012412,23.8264225 C20.3927671,24.1423092 18.9311106,24.1503935 17.500748,24.0101236 C16.1557162,23.8558353 14.7560488,23.5004735 13.7177982,22.5787 C12.8298601,21.8032165 12.396194,20.5949691 12.439287,19.4288629 C12.4495473,19.2319174 12.6444918,19.0945716 12.8320831,19.1107401 C13.3694631,19.1063539 13.9069286,19.1048919 14.4443085,19.1115141 C14.659004,19.0960337 14.8181232,19.2826588 14.829153,19.4861404 C14.9282498,20.1389845 15.1721869,20.8241655 15.7381246,21.2111762 C16.8304124,21.9200078 18.2009237,21.8715024 19.4515612,21.891283 C20.4876743,21.8450997 21.6508433,21.8310813 22.4963724,21.1422883 C22.9424362,20.7493434 23.0746223,20.0920272 22.9540645,19.5264756 C22.823503,19.0490764 22.3269074,18.8265882 21.900509,18.6811582 C19.7122568,17.9848829 17.3370972,18.2375579 15.1700494,17.4501201 C14.290234,17.1374155 13.4394892,16.5461491 13.1014999,15.637018 C12.6298709,14.3503364 12.8459344,12.7587764 13.8389545,11.7731891 C14.8070935,10.792762 16.2047089,10.4152115 17.5334952,10.2801018 L17.5334952,10.2801878" id="Fill-3"></path>
        </g>
    </g>
</svg>