<?xml version="1.0" encoding="UTF-8"?>
<svg width="40px" height="40px" viewBox="0 0 40 40" version="1.1" xmlns="http://www.w3.org/2000/svg" xmlns:xlink="http://www.w3.org/1999/xlink">
    <!-- Generator: Sketch 54.1 (76490) - https://sketchapp.com -->
    <title>Artboard Copy 17</title>
    <desc>Created with Sketch.</desc>
    <defs>
        <linearGradient x1="59.3830999%" y1="-3.56828125%" x2="40.5108513%" y2="103.580664%" id="linearGradient-1">
            <stop stop-color="#FAAE42" offset="0%"></stop>
            <stop stop-color="#EF3E31" offset="100%"></stop>
        </linearGradient>
        <linearGradient x1="59.8404246%" y1="5.74840186%" x2="43.6223274%" y2="94.0379483%" id="linearGradient-2">
            <stop stop-color="#E39F3A" offset="0%"></stop>
            <stop stop-color="#D33929" offset="100%"></stop>
        </linearGradient>
    </defs>
    <g id="Artboard-Copy-17" stroke="none" stroke-width="1" fill="none" fill-rule="evenodd">
        <g id="swift-seeklogo.com" transform="translate(3.000000, 3.000000)" fill-rule="nonzero">
            <path d="M7.52762646,0 C7.72607004,0 25.9564202,0 26.2871595,0 C27.2,0 28.0863813,0.145525292 28.9463035,0.449805447 C30.1898833,0.899610895 31.3143969,1.69338521 32.1610895,2.72529183 C33.0210117,3.75719844 33.5898833,5.02723735 33.7883268,6.35019455 C33.8677043,6.83968872 33.8809339,7.32918288 33.8809339,7.81867704 C33.8809339,8.26848249 33.8809339,24.1175097 33.8809339,24.8319066 C33.8809339,25.2552529 33.8809339,25.6918288 33.8809339,26.1151751 C33.8809339,26.6972763 33.8544747,27.292607 33.7354086,27.8614786 C33.4708171,29.1712062 32.8490272,30.4015564 31.9494163,31.3937743 C31.063035,32.3859922 29.8988327,33.1268482 28.6420233,33.5237354 C27.8747082,33.7618677 27.0809339,33.8677043 26.27393,33.8677043 C25.9167315,33.8677043 7.47470817,33.8677043 7.19688716,33.8544747 C5.84747082,33.7883268 4.51128405,33.351751 3.38677043,32.5976654 C2.28871595,31.8568093 1.38910506,30.8249027 0.807003891,29.6342412 C0.304280156,28.6155642 0.0529182879,27.477821 0.0529182879,26.3400778 C0.0529182879,26.0754864 0.0529182879,7.7922179 0.0529182879,7.52762646 C0.026459144,6.40311284 0.26459144,5.29182879 0.754085603,4.28638132 C1.3229572,3.09571984 2.20933852,2.05058366 3.307393,1.30972763 C4.43190661,0.542412451 5.75486381,0.0926070039 7.10428016,0.026459144 C7.23657588,0 7.38210117,0 7.52762646,0 Z" id="Path" fill="url(#linearGradient-1)"></path>
            <path d="M28.5758755,27.7027237 C28.4568093,27.5175097 28.3245136,27.3322957 28.1789883,27.1603113 C27.848249,26.7634241 27.4645914,26.4194553 27.0412451,26.1284047 C26.5120623,25.7712062 25.8902724,25.5463035 25.2552529,25.5198444 C24.8054475,25.4933852 24.355642,25.5727626 23.9322957,25.7315175 C23.5089494,25.8770428 23.0988327,26.088716 22.7019455,26.3003891 C22.2389105,26.5385214 21.7758755,26.7766537 21.2863813,26.9750973 C20.7042802,27.2132296 20.0957198,27.3984436 19.47393,27.5307393 C18.6933852,27.6762646 17.8996109,27.7291829 17.1190661,27.7159533 C15.7035019,27.6894942 14.2879377,27.477821 12.9385214,27.0809339 C11.7478599,26.7237354 10.6101167,26.2342412 9.5385214,25.6124514 C8.59922179,25.0700389 7.72607004,24.448249 6.90583658,23.7470817 C6.2311284,23.1649805 5.60933852,22.5431907 5.02723735,21.8817121 C4.63035019,21.418677 4.24669261,20.9291829 3.88949416,20.4264591 C3.74396887,20.2280156 3.61167315,20.0163424 3.492607,19.8046693 C3.492607,19.8046693 3.492607,19.8046693 3.492607,19.8046693 C3.492607,19.8046693 3.492607,19.8046693 3.492607,19.8046693 L0,16.0342412 L0,7.50116732 C0,3.36031128 3.34708171,0 7.48793774,0 L14.1688716,0 L19.1167315,5.02723735 C19.1167315,5.02723735 19.1167315,5.02723735 19.1167315,5.02723735 C30.2824903,12.6210117 26.6708171,20.9953307 26.6708171,20.9953307 C26.6708171,20.9953307 29.8459144,24.5673152 28.5758755,27.7027237 Z" id="Path" fill="url(#linearGradient-2)"></path>
            <path d="M19.1431907,5.02723735 C30.3089494,12.6210117 26.6972763,20.9953307 26.6972763,20.9953307 C26.6972763,20.9953307 29.8723735,24.5805447 28.5891051,27.7159533 C28.5891051,27.7159533 27.2793774,25.5198444 25.0832685,25.5198444 C22.966537,25.5198444 21.7229572,27.7159533 17.463035,27.7159533 C7.97743191,27.7159533 3.492607,19.7914397 3.492607,19.7914397 C12.0389105,25.4140078 17.8731518,21.4319066 17.8731518,21.4319066 C14.0233463,19.1961089 5.83424125,8.50661479 5.83424125,8.50661479 C12.9649805,14.5789883 16.0474708,16.1797665 16.0474708,16.1797665 C14.2085603,14.6583658 9.04902724,7.2233463 9.04902724,7.2233463 C13.1766537,11.4038911 21.3789883,17.2381323 21.3789883,17.2381323 C23.707393,10.7821012 19.1431907,5.02723735 19.1431907,5.02723735 Z" id="Path" fill="#FFFFFF"></path>
        </g>
    </g>
</svg>