<?xml version="1.0" encoding="UTF-8"?>
<svg width="40px" height="40px" viewBox="0 0 40 40" version="1.1" xmlns="http://www.w3.org/2000/svg" xmlns:xlink="http://www.w3.org/1999/xlink">
    <!-- Generator: Sketch 54.1 (76490) - https://sketchapp.com -->
    <title>Artboard Copy 7</title>
    <desc>Created with Sketch.</desc>
    <g id="Artboard-Copy-7" stroke="none" stroke-width="1" fill="none" fill-rule="evenodd">
        <g id="react-seeklogo.com" transform="translate(0.000000, 2.000000)">
            <path d="M0.117831892,17.9609229 C0.117831892,20.968385 3.04946925,23.775973 7.6714375,25.3584822 C6.74847358,30.0130795 7.50602613,33.7646533 10.0363343,35.2264858 C12.6372292,36.7289538 16.5119213,35.6889318 20.18953,32.4686842 C23.7743539,35.5589333 27.3974577,36.7751008 29.9254081,35.3091138 C32.5237598,33.8022841 33.3141223,29.7962613 32.3656331,24.9963799 C37.1796578,23.4019822 39.8724902,21.0079728 39.8724902,17.9609229 C39.8724902,15.0231861 36.9354134,12.481648 32.375785,10.909251 C33.3968703,5.91099835 32.531675,2.25045961 29.8966275,0.728257312 C27.3561655,-0.739239961 23.691003,0.539833525 20.0534572,3.71101447 C16.2692089,0.3450565 12.6402105,-0.682612709 10.0077175,0.844026189 C7.46972464,2.31569778 6.74548588,6.1354481 7.67143748,10.8762168 C3.20553586,12.4359969 0.117831892,15.0349345 0.117831892,17.9609229 Z" id="Path" fill="#FFFFFF"></path>
            <path d="M31.4100864,12.4707315 C31.0438334,12.3444478 30.6643205,12.2249631 30.2735584,12.1119625 C30.3377848,11.8493857 30.396732,11.5902083 30.4491438,11.3354376 C31.3094738,7.15202393 30.74696,3.7818367 28.826143,2.67222766 C26.9843205,1.60825952 23.9721603,2.71761676 20.9300236,5.36969946 C20.6374863,5.62472194 20.3441319,5.89472723 20.0509034,6.17770082 C19.8555223,5.99047868 19.6604556,5.80955186 19.4658917,5.63649414 C16.2776434,2.80071466 13.0819167,1.60567845 11.1629851,2.7184981 C9.32292222,3.78555093 8.77800472,6.95384798 9.55242734,10.9185001 C9.62721131,11.301443 9.71462686,11.6925069 9.81347997,12.0901178 C9.36119403,12.2187307 8.92455617,12.3558423 8.50677141,12.5017043 C4.76889238,13.8071601 2.38171248,15.8531315 2.38171248,17.9753391 C2.38171248,20.1671728 4.94435192,22.3656164 8.83764336,23.6986454 C9.14488609,23.8038399 9.46369206,23.9033055 9.79223881,23.9977349 C9.68559309,24.4277668 9.59283583,24.8491739 9.5149725,25.2601939 C8.77655931,29.1560384 9.35321288,32.2494843 11.1883739,33.3098012 C13.0839277,34.4048053 16.2652003,33.279269 19.3629536,30.5667515 C19.6077927,30.3523336 19.8535114,30.1249476 20.09967,29.8866077 C20.4187275,30.1943847 20.7372819,30.4856681 21.0541398,30.758884 C24.0546741,33.3454326 27.0181933,34.3898854 28.8516575,33.3266098 C30.7453259,32.228458 31.3607542,28.9053596 30.5617595,24.8622682 C30.5007383,24.5534838 30.429725,24.2380265 30.3499764,23.9169664 C30.5733856,23.8508026 30.7927102,23.7824987 31.0065672,23.7114878 C35.0540142,22.3681345 37.6874155,20.1964458 37.6874155,17.9753391 C37.6874155,15.8454513 35.223252,13.7856931 31.4100864,12.4707315 L31.4100864,12.4707315 L31.4100864,12.4707315 Z" id="Path" fill="#53C1DE"></path>
            <path d="M30.5322231,22.2773563 C30.3391673,22.3413793 30.1410841,22.4032622 29.9392302,22.4632564 C29.4924117,21.046248 28.8893637,19.5394686 28.1513905,17.9827047 C28.8556167,16.4630199 29.4353495,14.9755042 29.8696622,13.567687 C30.2308248,13.6723778 30.5813669,13.7827973 30.9191517,13.8993232 C34.1862686,15.0259925 36.1791673,16.691791 36.1791673,17.9753391 C36.1791673,19.3425518 34.0268972,21.1173848 30.5322231,22.2773563 L30.5322231,22.2773563 L30.5322231,22.2773563 Z M29.0821681,25.1556918 C29.4354752,26.9434933 29.4859386,28.5598737 29.2519087,29.8234658 C29.0416339,30.9588856 28.6187587,31.715895 28.0958994,32.0190765 C26.983252,32.6642186 24.603865,31.825622 22.0377691,29.6135806 C21.7435978,29.360006 21.4472898,29.0892453 21.1500392,28.8026833 C22.1448547,27.7127786 23.1391045,26.4457243 24.1094737,25.0385364 C25.816245,24.8868199 27.4287511,24.638785 28.8910605,24.3001611 C28.9630794,24.5911926 29.0270542,24.8766214 29.0821681,25.1556918 L29.0821681,25.1556918 L29.0821681,25.1556918 Z M14.4182247,31.9075868 C13.3311548,32.2921665 12.4653574,32.3031833 11.9419953,32.000883 C10.8283425,31.3574408 10.3653731,28.8736943 10.9968892,25.5419714 C11.0692223,25.1604133 11.1553182,24.7684683 11.2545483,24.3678356 C12.7008327,24.6882032 14.301524,24.9187369 16.0123802,25.0576742 C16.9892852,26.4346446 18.0122545,27.7003139 19.0431422,28.8085379 C18.8179105,29.0263552 18.5935584,29.2337224 18.3704634,29.4291283 C17.0006598,30.6285713 15.6279655,31.4795695 14.4182247,31.9075868 L14.4182247,31.9075868 L14.4182247,31.9075868 Z M9.32543598,22.2689835 C7.60389631,21.6795548 6.18218383,20.9134802 5.20766692,20.0775278 C4.33200316,19.32631 3.88989787,18.5805061 3.88989787,17.9753391 C3.88989787,16.6875103 5.80656717,15.0448784 9.00323645,13.9284075 C9.39110763,13.7929327 9.79714061,13.6652641 10.2185075,13.5453387 C10.6602985,14.9849472 11.2398429,16.4900897 11.9392302,18.0121037 C11.2307934,19.5567176 10.6430165,21.0858455 10.1968892,22.5423252 C9.89649647,22.4558278 9.60546741,22.3647979 9.32543598,22.2689835 L9.32543598,22.2689835 L9.32543598,22.2689835 Z M11.0325845,10.6283499 C10.3690809,7.23153354 10.8097408,4.66909587 11.9186174,4.02609423 C13.0997643,3.34110296 15.7116103,4.31775532 18.4644148,6.76631108 C18.640377,6.92281218 18.8170306,7.08661579 18.994187,7.2560852 C17.9683897,8.35946189 16.9547841,9.61562545 15.9865516,10.9844748 C14.3260958,11.1386466 12.7366536,11.3863036 11.2752867,11.7179399 C11.1834093,11.3477135 11.1020267,10.9839712 11.0325845,10.6283499 L11.0325845,10.6283499 L11.0325845,10.6283499 Z M26.2618695,14.3953926 C25.9125217,13.7909182 25.5538727,13.2007341 25.1882483,12.626666 C26.3147213,12.7693174 27.3939983,12.95868 28.4075413,13.1904098 C28.103252,14.167314 27.7239906,15.188726 27.2775491,16.2358227 C26.9572978,15.6267527 26.6185703,15.0126465 26.2618695,14.3953926 L26.2618695,14.3953926 L26.2618695,14.3953926 Z M20.0514061,8.33585453 C20.7470856,9.09084951 21.4437706,9.93378976 22.1290181,10.8483705 C21.4384917,10.8156979 20.7394186,10.7987006 20.0345641,10.7987006 C19.3363708,10.7987006 18.6424509,10.8153202 17.956198,10.8474262 C18.6421367,9.94134411 19.3448547,9.09953699 20.0514061,8.33585453 L20.0514061,8.33585453 L20.0514061,8.33585453 Z M13.8011626,14.4058428 C13.4521917,15.012017 13.1197486,15.6227867 12.8045247,16.2346896 C12.3653103,15.1912441 11.989568,14.1651736 11.6826394,13.1744198 C12.6899607,12.9486075 13.7641477,12.7639664 14.8834564,12.624022 C14.5126787,13.2033781 14.1510762,13.797906 13.8011626,14.4057169 L13.8011626,14.4058428 L13.8011626,14.4058428 Z M14.9156952,23.4344318 C13.7592459,23.3051893 12.6689081,23.1300543 11.6618382,22.9104742 C11.9736685,21.9020306 12.3577062,20.8540526 12.8062215,19.7881328 C13.1222624,20.399595 13.4560251,21.0106166 13.8071328,21.6181129 L13.8071956,21.6181129 C14.164839,22.2370034 14.5353653,22.8432404 14.9156952,23.4344318 L14.9156952,23.4344318 L14.9156952,23.4344318 Z M20.0931344,27.7213401 C19.3782875,26.9487183 18.6652631,26.0940689 17.9688923,25.1747667 C18.6449017,25.2013328 19.3341083,25.2149308 20.0345641,25.2149308 C20.754187,25.2149308 21.4655773,25.1986888 22.1657817,25.1674641 C21.4782717,26.1033231 20.7841006,26.9592945 20.0931344,27.7213401 L20.0931344,27.7213401 L20.0931344,27.7213401 Z M27.2919403,19.7338045 C27.7638334,20.8112445 28.1616339,21.8537457 28.4774863,22.8450032 C27.4538256,23.0789363 26.3485939,23.2673547 25.1841006,23.4073622 C25.550605,22.8255507 25.9123959,22.2252311 26.2679025,21.6077254 C26.627557,20.9829803 26.9690495,20.3572908 27.2919403,19.7338045 L27.2919403,19.7338045 L27.2919403,19.7338045 Z M24.9614453,20.8529194 C24.4095522,21.8115042 23.8429536,22.7265885 23.2677455,23.5903664 C22.2200784,23.6654062 21.1377219,23.7040594 20.0345641,23.7040594 C18.9358681,23.7040594 17.8671484,23.6698759 16.8380205,23.6029569 C16.239623,22.7278478 15.660707,21.8100564 15.1123331,20.8611662 L15.1124588,20.8611662 C14.5655302,19.9148572 14.0621524,18.9605531 13.606033,18.0116001 C14.0620267,17.0604437 14.5640848,16.1050694 15.1078712,15.1604601 L15.1077455,15.1606489 C15.6529772,14.2135215 16.2268028,13.3001998 16.81967,12.4305675 C17.8696622,12.3510579 18.946363,12.3095719 20.0345013,12.3095719 L20.0345641,12.3095719 C21.1276041,12.3095719 22.2056873,12.3513727 23.2553652,12.4315748 C23.839183,13.2948488 24.4091123,14.2052117 24.9564808,15.1524651 C25.5100708,16.1103575 26.0186017,17.0593734 26.4784917,17.9901332 C26.0199844,18.9368828 25.5125845,19.8954678 24.9614453,20.8529194 L24.9614453,20.8529194 L24.9614453,20.8529194 Z M28.072773,3.98114581 C29.2550511,4.66412258 29.7148153,7.41856682 28.9720031,11.0304934 C28.9246189,11.2609643 28.8712648,11.4957159 28.8133228,11.7336152 C27.3485623,11.3950541 25.7579889,11.1431163 24.0926945,10.9866152 C23.1225766,9.60272009 22.1172662,8.34460499 21.1081853,7.2553927 C21.3794816,6.99394904 21.6504006,6.74465527 21.9201884,6.50940003 C24.5266928,4.23711258 26.962828,3.33996981 28.072773,3.98114581 L28.072773,3.98114581 L28.072773,3.98114581 Z" id="Shape" fill="#FFFFFF" fill-rule="nonzero"></path>
            <path d="M20.0345641,14.8171775 C21.7757109,14.8171775 23.1872427,16.2311012 23.1872427,17.9753391 C23.1872427,19.719514 21.7757109,21.1335009 20.0345641,21.1335009 C18.2934172,21.1335009 16.8818853,19.719514 16.8818853,17.9753391 C16.8818853,16.2311012 18.2934172,14.8171775 20.0345641,14.8171775" id="Path" fill="#53C1DE"></path>
        </g>
    </g>
</svg>