<?xml version="1.0" encoding="UTF-8"?>
<svg width="40px" height="40px" viewBox="0 0 40 40" version="1.1" xmlns="http://www.w3.org/2000/svg" xmlns:xlink="http://www.w3.org/1999/xlink">
    <!-- Generator: Sketch 54.1 (76490) - https://sketchapp.com -->
    <title>Artboard Copy 12</title>
    <desc>Created with Sketch.</desc>
    <g id="Artboard-Copy-12" stroke="none" stroke-width="1" fill="none" fill-rule="evenodd">
        <g id="Group" transform="translate(12.000000, 2.000000)">
            <path d="M8.9198476,35.8280572 L7.95709549,35.5026678 C7.95709549,35.5026678 8.07463825,30.6472564 6.31347418,30.2988268 C5.13936482,28.9514054 6.5013229,-26.8512631 10.7280288,30.1129829 C10.7280288,30.1129829 9.27225616,30.8331003 9.0138818,32.0644505 C8.73199889,33.2725433 8.9198476,35.8280572 8.9198476,35.8280572 L8.9198476,35.8280572 L8.9198476,35.8280572 Z" id="Path" fill="#FFFFFF"></path>
            <path d="M8.9198476,35.8280572 L7.95709549,35.5026678 C7.95709549,35.5026678 8.07463825,30.6472564 6.31347418,30.2988268 C5.13936482,28.9514054 6.5013229,-26.8512631 10.7280288,30.1129829 C10.7280288,30.1129829 9.27225616,30.8331003 9.0138818,32.0644505 C8.73199889,33.2725433 8.9198476,35.8280572 8.9198476,35.8280572 L8.9198476,35.8280572 L8.9198476,35.8280572 Z" id="Path" fill="#A6A385"></path>
            <path d="M9.4365963,31.1352321 C9.4365963,31.1352321 17.8667192,25.6525167 15.8941978,14.2456261 C13.9922022,5.95199772 9.50690226,3.23389775 9.01388178,2.18839109 C8.47384421,1.44501629 7.95709547,0.144110379 7.95709547,0.144110379 L8.30950405,23.2130738 C8.30950405,23.2363314 7.58139803,30.275569 9.4365963,31.1352321" id="Path" fill="#FFFFFF"></path>
            <path d="M9.4365963,31.1352321 C9.4365963,31.1352321 17.8667192,25.6525167 15.8941978,14.2456261 C13.9922022,5.95199772 9.50690226,3.23389775 9.01388178,2.18839109 C8.47384421,1.44501629 7.95709547,0.144110379 7.95709547,0.144110379 L8.30950405,23.2130738 C8.30950405,23.2363314 7.58139803,30.275569 9.4365963,31.1352321" id="Path" fill="#499D4A"></path>
            <path d="M7.46407519,31.4371465 C7.46407519,31.4371465 -0.44951867,26.0937597 0.0202129607,16.6850692 C0.466216334,7.2761613 6.05509997,2.65310902 7.13517516,1.81670369 C7.83977257,1.07332888 7.86328115,0.794454651 7.91029826,0.0510798477 C8.40331869,1.09658651 8.30950423,15.6860778 8.37981016,17.4051864 C8.59116744,24.0262215 8.00411273,30.182756 7.46407519,31.4371465 L7.46407519,31.4371465 L7.46407519,31.4371465 Z" id="Path" fill="#FFFFFF"></path>
            <path d="M7.46407519,31.4371465 C7.46407519,31.4371465 -0.44951867,26.0937597 0.0202129607,16.6850692 C0.466216334,7.2761613 6.05509997,2.65310902 7.13517516,1.81670369 C7.83977257,1.07332888 7.86328115,0.794454651 7.91029826,0.0510798477 C8.40331869,1.09658651 8.30950423,15.6860778 8.37981016,17.4051864 C8.59116744,24.0262215 8.00411273,30.182756 7.46407519,31.4371465 L7.46407519,31.4371465 L7.46407519,31.4371465 Z" id="Path" fill="#58AA50"></path>
        </g>
    </g>
</svg>