<?xml version="1.0" encoding="UTF-8"?>
<svg width="135px" height="149px" viewBox="0 0 135 149" version="1.1" xmlns="http://www.w3.org/2000/svg" xmlns:xlink="http://www.w3.org/1999/xlink">
    <title>Group 30</title>
    <defs>
        <polygon id="path-1" points="0.890171712 0.181974968 40.9934739 0.181974968 40.9934739 47.2864615 0.890171712 47.2864615"></polygon>
        <polygon id="path-3" points="0.447936516 0.782932359 4.80208438 0.782932359 4.80208438 17.6448896 0.447936516 17.6448896"></polygon>
    </defs>
    <g id="Home-page" stroke="none" stroke-width="1" fill="none" fill-rule="evenodd" opacity="0.415225074">
        <g id="Techuz-new-landing-page" transform="translate(-586.000000, -2515.000000)">
            <g id="Group-30" transform="translate(658.960252, 2599.304634) rotate(-23.000000) translate(-658.960252, -2599.304634) translate(586.960252, 2511.804634)">
                <g id="Group-29" transform="translate(0.920505, 0.390731)">
                    <path d="M53.2783851,127.317976 C54.0467433,119.6617 48.8539224,112.830562 44.145594,106.706385 C38.8268478,99.7823927 33.6980567,92.4975342 31.1240567,84.1849451 C26.3943851,68.9103779 31.5167731,51.1709456 43.5159672,40.4779044 C55.5172955,29.782753 73.7231164,26.5539484 88.8277582,32.2180736 C94.5626985,34.3684996 99.9262657,37.768241 103.678415,42.5629103 C108.111415,48.2228148 110.021639,55.3979362 111.329982,62.4401067 C112.730101,69.9739842 113.524072,77.9552515 110.798534,85.1261522 C108.55749,91.0139724 104.160773,95.7938694 100.235743,100.744703 C94.2617582,108.280691 89.2034,116.523639 85.2036687,125.241412 C84.8451015,126.022234 84.4758627,126.83049 83.8312955,127.402389 C82.8729821,128.250742 81.500609,128.417458 80.2200119,128.520864 C71.1192358,129.255259 61.909609,128.702352 53.2783851,127.317976" id="Fill-1" fill="#FFFFFF"></path>
                    <path d="M52.1977746,128.16464 C64.0390284,129.169157 75.9784612,129.023545 87.7898343,127.732023 C88.5667299,137.612587 89.3244164,147.718956 86.7461478,157.295633 C85.486894,161.972124 83.1754164,166.737249 78.9067597,169.107149 C73.8441328,171.915998 67.5542672,170.622366 61.9367149,169.172569 C59.7597,168.609111 57.5101179,167.997116 55.7791776,166.576864 C52.2319239,163.664608 51.9758045,158.466866 52.0035507,153.908554 C52.056909,145.040948 52.1102672,136.175452 52.1977746,128.16464" id="Fill-3" fill="#ACD4F7"></path>
                    <path d="M114.444607,67.8663978 C113.505503,66.8977564 111.770294,67.1298927 111.100115,68.2926844 C110.62416,69.4596968 110.784234,68.8920181 110.579339,70.5697303 C110.557996,70.7892046 110.534518,71.0065685 110.506772,71.2239325 C110.374443,71.8971277 109.936906,74.125636 109.772563,74.6278945 C110.056428,73.9736923 110.045757,74.0032369 109.740548,74.714418 C108.150473,79.0469251 107.815384,80.3089023 105.794175,83.8183808 C105.277667,84.8313391 104.315085,87.1611432 102.43901,89.5162713 C100.208637,92.6079045 94.038294,98.4281941 90.5081149,103.455 C89.4708313,104.885803 87.1892343,108.12938 86.8690851,108.690728 C86.8584134,108.70339 86.8541448,108.707611 86.8434731,108.722383 C85.5223239,110.425419 84.1819657,112.134786 83.1852343,114.048855 C81.2365925,117.929752 81.4137418,117.864332 80.1801,120.66685 C79.471503,122.540822 78.314697,124.940267 78.4320851,126.850116 C78.4470254,126.999949 78.4811746,127.139231 78.5131896,127.278513 C77.8472791,128.401208 77.5847567,129.787695 78.0137567,131.313463 C79.1897716,135.078292 79.2281896,139.461447 79.023294,146.402322 C78.7757119,153.606988 79.2260552,154.917502 77.4033388,161.440532 C76.3489806,164.572261 77.0917269,162.689847 75.5635478,165.737163 C75.2007119,166.48633 74.6308463,167.18696 74.622309,168.047974 C73.9585328,171.85923 79.1577567,173.758527 81.3539806,170.820948 C84.5661448,167.258711 86.0601746,162.531572 87.1038612,157.956377 C88.057906,152.047454 88.2670701,146.84127 89.2168463,140.339344 C89.605294,137.522054 89.4110701,134.668888 89.1421448,131.849487 C88.8710851,130.070479 88.8305328,128.015018 87.5627418,126.609538 C87.5606075,126.605318 87.5563388,126.603207 87.5542045,126.601097 C87.2233836,126.647524 86.8904284,126.696062 86.5596075,126.742489 C85.9854731,126.820571 85.4092045,126.888102 84.8329358,126.949301 C87.2746075,118.636712 89.2403239,114.023531 93.6989358,107.86981 C96.6251,104.28858 99.8927567,100.990134 102.993936,97.5566279 C105.941443,94.4755463 108.549593,91.0399294 110.540921,87.2772114 C111.627294,84.6498508 111.445876,84.9030903 112.150204,83.0016832 C112.265458,82.693575 112.092578,83.0924274 111.99013,83.3308946 C112.399921,82.3939082 112.771294,81.4421494 113.131996,80.48617 C113.716801,79.0152702 114.047622,77.4705087 114.273861,75.910975 C114.27813,75.904644 114.284533,75.8835407 114.295204,75.8392238 C114.826652,72.7750249 115.906622,69.518786 114.444607,67.8663978" id="Fill-5" fill="#000000"></path>
                    <path d="M79.9399881,121.209204 C80.0253612,121.015054 80.1064657,120.837786 80.1811672,120.66685 C80.2067791,120.599319 80.2366597,120.525457 80.2601373,120.460037 C80.1534209,120.709056 80.0467045,120.960185 79.9399881,121.209204" id="Fill-7" fill="#000000"></path>
                    <g id="Group-11" transform="translate(49.089552, 125.837278)">
                        <mask id="mask-2" fill="white">
                            <use xlink:href="#path-1"></use>
                        </mask>
                        <g id="Clip-10"></g>
                        <path d="M4.16877015,3.54797692 L4.56788955,28.8212867 C4.60630746,31.1996284 4.64472537,33.6581626 5.49205373,35.7874854 C7.83554627,41.6668642 15.3868,43.3509074 18.5242627,43.802518 C25.0638448,44.7437251 30.5917552,43.2432806 33.3151582,39.7865604 C35.2125761,37.3807844 35.8251284,34.1139939 36.2882776,30.9738231 C37.8036507,20.7007376 38.110994,13.1373156 37.3554418,3.69147934 C29.9023672,4.20639982 12.1511582,4.13042794 4.16877015,3.54797692 M22.2678746,47.2866725 C20.5732179,47.2866725 19.098397,47.1347288 18.0568448,46.9848954 C14.3580537,46.4509819 5.43442687,44.410293 2.46771045,36.9671598 C1.4026806,34.2933719 1.3578597,31.4127717 1.31730746,28.8719346 L0.890171712,1.81328581 C0.881904478,1.35323392 1.07612836,0.912174986 1.42188955,0.599846174 C1.76551642,0.289627692 2.23506866,0.144014936 2.69394925,0.190442191 C9.58569552,0.939609273 32.4400836,1.04301543 38.6573821,0.352937587 C39.0885164,0.298069012 39.5281881,0.42890946 39.8654119,0.703252335 C40.2047701,0.97759521 40.418203,1.37433721 40.4566209,1.80484449 C41.3914567,12.1539019 41.1246657,20.4622703 39.5047104,31.4380957 C39.001009,34.8483886 38.2646657,38.7377265 35.8806209,41.7618291 C32.3077552,46.2969278 26.5813522,47.2866725 22.2678746,47.2866725" id="Fill-9" fill="#000000" mask="url(#mask-2)"></path>
                    </g>
                    <path d="M85.5255254,129.207354 C85.4465552,129.207354 85.3675851,129.201023 85.2864806,129.190472 C84.3986,129.061742 83.7839134,128.245044 83.9141075,127.365036 C85.3953313,117.421162 91.964794,109.515867 98.3208239,101.870142 C104.388719,94.5705112 110.119391,87.6739534 111.899421,79.1186763 C112.646436,75.5290053 112.955913,64.150107 109.007406,53.7081951 C106.358704,46.6997898 102.63857,41.4661719 97.9515851,38.1550644 C89.0962567,31.8979365 73.9318537,27.5063402 62.0927343,31.2247413 C50.7402418,34.7911987 41.5071373,41.3353314 36.0966149,49.6542515 C31.1278985,57.2957558 29.0426597,66.7985709 30.2293463,76.4111232 C31.339197,85.4222315 35.2364806,94.2223068 41.4986,101.85959 C42.3651373,102.914755 43.2935701,103.96992 44.1942567,104.989209 C46.1066149,107.160739 48.0872716,109.40824 49.7072269,111.927974 C52.6355254,116.488397 54.2725552,121.751559 54.4390328,127.151893 C54.4667791,128.038232 53.7603164,128.778957 52.8638985,128.806392 C52.0016299,128.86126 51.216197,128.137417 51.1884507,127.248968 C51.0411821,122.426865 49.5791672,117.72505 46.9624806,113.652113 C45.4748537,111.337082 43.6606746,109.27951 41.7419134,107.10165 C40.8262866,106.061257 39.8765104,104.982878 38.9736896,103.885507 C32.3252567,95.7776198 28.1846597,86.4119761 27.0001075,76.8015342 C25.7237791,66.4440355 27.9840328,56.1857223 33.3625403,47.9153398 C39.1807194,38.9696517 49.0349134,31.9528051 61.108809,28.1605424 C73.9681373,24.1234815 90.3256299,28.816855 99.8426,35.5403658 C105.063167,39.2313326 109.171749,44.9629884 112.053093,52.581279 C115.920496,62.8058269 116.153137,74.6342255 115.083839,79.7665476 C113.1416,89.1005363 106.883749,96.6301931 100.832928,103.910831 C94.4811672,111.554445 88.4794358,118.773884 87.1326746,127.83564 C87.0131522,128.633345 86.3173612,129.207354 85.5255254,129.207354" id="Fill-12" fill="#000000"></path>
                    <path d="M70.5818119,57.937296 C70.543394,57.981613 70.5049761,58.0322609 70.4665582,58.0913501 C68.8636776,60.4380369 68.2682,63.6436278 68.5904836,68.1766163 C68.7612299,70.5697303 69.119797,72.6821704 69.6747224,74.5392606 C70.5177821,72.1313743 71.147409,69.6496265 71.5550657,67.11301 C72.2167075,63.0189702 71.9072299,60.0982738 70.5818119,57.937296 L70.5818119,57.937296 Z M89.2251701,74.912789 C89.2038269,74.938113 88.996797,74.9528853 88.3436925,75.4108269 C85.2190358,77.6013492 82.6663791,80.6655481 81.0720358,84.1180476 C81.7059313,84.0631791 82.3355582,83.9260076 82.9523791,83.6938713 C85.2745284,82.8265258 87.2850657,80.716196 88.9284985,77.4261918 C89.445006,76.3900199 89.4279313,75.1575873 89.2251701,74.912789 L89.2251701,74.912789 Z M46.9057075,74.7861692 C46.5108567,74.7861692 46.1458866,74.9085684 45.9922149,75.130153 C45.7019463,75.5416673 45.8983045,76.4702124 46.4788418,77.4430745 C48.2823493,80.4629564 51.3173642,82.5437416 54.384394,84.1560336 C53.1934388,81.4716941 51.6844687,78.9139743 49.7208866,76.6580318 C49.0976627,75.9405196 48.3463791,75.1702493 47.5011851,74.8832444 C47.3112299,74.8157138 47.1042,74.7861692 46.9057075,74.7861692 L46.9057075,74.7861692 Z M75.8173194,128.79795 C74.9209015,128.79795 74.1930955,128.076218 74.1930955,127.189879 L74.1930955,127.033715 C74.1696179,117.741932 74.4726925,108.028084 75.0959164,98.1686235 C75.3434985,94.2434101 75.6636478,90.4047201 76.6689164,86.7644012 C74.1546776,85.9645862 71.7749015,84.3712872 69.9607224,82.123786 C69.9436478,82.1026827 69.9287075,82.0836897 69.9116328,82.0646967 C69.7430209,82.3812462 69.5701403,82.699906 69.392991,83.0143452 C67.0687075,87.1569226 64.4328119,89.3221209 61.3294985,89.6302291 C60.7937821,89.6850977 60.2687373,89.6766564 59.7564985,89.6217878 C60.4032,91.9220473 60.9047672,94.2117551 61.3380358,96.4064981 C63.3101552,106.426344 64.2428567,116.684657 64.1126627,126.894433 C64.0998567,127.780771 63.4147373,128.47296 62.4649612,128.481401 C61.5685433,128.468739 60.8492746,127.740675 60.8620806,126.852226 C60.9901403,116.861925 60.0766478,106.825196 58.1472149,97.0206041 C57.6072299,94.2792857 56.951991,91.3881338 56.0363642,88.5328576 C55.7396925,88.4041275 55.4494239,88.2690664 55.1676925,88.1361156 C51.2341254,86.2874667 46.3721254,83.5883549 43.678603,79.0764697 C42.3894687,76.9176023 42.2571403,74.8114932 43.3200358,73.2983867 C44.380797,71.7789493 46.5876925,71.1669536 48.5640806,71.8443695 C50.1392149,72.3803932 51.2789463,73.5199713 52.1839015,74.5603639 C55.1783642,78.0023119 57.1974388,82.0034972 58.6445134,86.097537 C59.4427522,86.3592179 60.240991,86.5111616 61.0029463,86.4330794 C62.9409164,86.2410394 64.8063194,84.5654376 66.5500657,81.4548114 C67.0260209,80.6064588 67.4720955,79.7454443 67.8882896,78.8717677 C66.4796328,76.0291535 65.6429761,72.5682126 65.3484388,68.4024216 C65.109394,65.0744314 65.102991,60.1995696 67.7730358,56.2912388 C68.7462896,54.8646558 70.0951851,54.2231156 71.3928567,54.583982 C72.3767821,54.8583248 72.9402448,55.6053816 73.2817373,56.1414054 C75.6636478,59.9104544 75.2709313,64.4962011 74.7672299,67.6194892 C74.1482746,71.4602894 73.0576328,75.1808009 71.5166478,78.732486 C71.8218567,79.2199722 72.148409,79.6821344 72.5005731,80.1168623 C73.7683642,81.6848374 75.6444388,83.0396691 77.7104687,83.7065333 C79.4990358,79.3676952 82.6023493,75.4973504 86.4633493,72.7876869 C86.9841254,72.4247102 88.2049612,71.5615853 89.6669761,71.7557356 C90.732006,71.8907967 91.596409,72.4816891 92.1043791,73.4186755 C92.9858567,75.0415191 92.6080806,77.3164547 91.843991,78.8485541 C89.8249164,82.8940564 87.2210358,85.5361893 84.1027821,86.7010913 C82.7581552,87.2033498 81.3281552,87.4207138 79.8789463,87.3468522 C78.8971552,90.7402626 78.5919463,94.3848022 78.3400955,98.3691048 C77.7232746,108.161035 77.4202,117.803132 77.4436776,127.029494 L77.4436776,127.189879 C77.4436776,128.076218 76.7158716,128.79795 75.8173194,128.79795 L75.8173194,128.79795 Z" id="Fill-14" fill="#000000"></path>
                    <path d="M128.044761,57.7022053 C127.316955,57.7022053 126.655313,57.2168294 126.469627,56.490876 C126.25406,55.6509647 126.751358,54.7920605 127.594418,54.5514829 L139.444209,51.1622932 C141.273328,50.6410418 142.07797,51.6898757 142.282866,52.0233078 C142.553925,52.4685874 142.607284,53.1164586 142.398119,53.5933932 C141.902955,54.7308609 141.902955,54.7308609 128.394791,57.6642194 C128.277403,57.6916536 128.160015,57.7022053 128.044761,57.7022053" id="Fill-16" fill="#000000"></path>
                    <g id="Group-20" transform="translate(68.298507, 0.076695)">
                        <mask id="mask-4" fill="white">
                            <use xlink:href="#path-3"></use>
                        </mask>
                        <g id="Clip-19"></g>
                        <path d="M3.1746,17.6448896 C2.33580896,17.6448896 1.62507761,17.00757 1.5567791,16.1655484 L0.453331343,2.51804553 C0.380764179,1.63381734 1.04880896,0.859326298 1.94309254,0.787575085 C2.83737612,0.715823871 3.62067463,1.3763571 3.69324179,2.26058529 L4.79668955,15.9080882 C4.86925672,16.7944267 4.20121194,17.5689177 3.30692836,17.6406689 C3.26210746,17.6427793 3.21728657,17.6448896 3.1746,17.6448896" id="Fill-18" fill="#000000" mask="url(#mask-4)"></path>
                    </g>
                    <path d="M30.611391,35.209255 C30.3339284,35.209255 30.0543313,35.1396141 29.7982119,34.9940014 L19.6921672,29.220139 C18.4585254,28.5152889 18.2429582,27.62684 18.2792418,27.0042927 C18.313391,26.3733041 18.6740925,25.828839 19.2418239,25.5523858 C20.3068537,25.035355 20.7059731,24.8475357 31.5398239,32.2822276 C32.2548239,32.7739344 32.4511821,33.7362448 31.9858985,34.4621983 C31.6764209,34.9454638 31.1492418,35.209255 30.611391,35.209255" id="Fill-21" fill="#000000"></path>
                    <path d="M1.62379701,78.2633597 C0.844767164,78.2633597 0.155379104,77.7083429 0.0230507463,76.9233002 C-0.126352239,76.0475134 0.471259701,75.2181537 1.35700597,75.0704307 L14.3358567,72.9115633 C15.2152,72.7680608 16.0582597,73.3547325 16.2076627,74.2305194 C16.3570657,75.1063063 15.7594537,75.9356659 14.8758418,76.083389 L1.89699104,78.2422564 C1.8030806,78.2570287 1.71343881,78.2633597 1.62379701,78.2633597" id="Fill-23" fill="#000000"></path>
                    <path d="M104.771191,27.4198167 C104.442504,27.4198167 104.111684,27.3227415 103.825684,27.1180395 C103.095743,26.6010087 102.927131,25.5986021 103.452176,24.8747589 L110.967146,14.5109292 C111.490057,13.7891964 112.505997,13.6245907 113.233803,14.1416215 C113.963743,14.6586523 114.132355,15.661059 113.60731,16.3849021 L106.09234,26.7487318 C105.77646,27.1855701 105.277027,27.4198167 104.771191,27.4198167" id="Fill-25" fill="#000000"></path>
                    <path d="M128.575996,106.487544 C128.198219,106.487544 127.818309,106.358813 127.508831,106.092912 L118.036682,97.9322666 C117.3601,97.3498155 117.289667,96.3347469 117.878742,95.663662 C118.469951,94.9946875 119.494428,94.9229363 120.173145,95.5074976 L129.645294,103.668143 C130.321876,104.250594 130.392309,105.265663 129.803234,105.936748 C129.480951,106.301835 129.030607,106.487544 128.575996,106.487544" id="Fill-27" fill="#000000"></path>
                </g>
            </g>
        </g>
    </g>
</svg>