<?xml version="1.0" encoding="UTF-8"?>
<svg width="107px" height="111px" viewBox="0 0 107 111" version="1.1" xmlns="http://www.w3.org/2000/svg" xmlns:xlink="http://www.w3.org/1999/xlink">
    <title>Group 6</title>
    <defs>
        <polygon id="path-1" points="0.201727055 0.0207843137 39.5033072 0.0207843137 39.5033072 40.6911569 0.201727055 40.6911569"></polygon>
        <polygon id="path-3" points="0 0.0390999915 52.3896067 0.0390999915 52.3896067 80.3913922 0 80.3913922"></polygon>
        <polygon id="path-5" points="0.218754357 0.898431373 39.5203345 0.898431373 39.5203345 41.571098 0.218754357 41.571098"></polygon>
    </defs>
    <g id="Home-page" stroke="none" stroke-width="1" fill="none" fill-rule="evenodd" opacity="0.42">
        <g id="Techuz-new-landing-page" transform="translate(-1103.000000, -2554.000000)">
            <g id="Group-6" transform="translate(1103.000000, 2553.000000)">
                <g id="Group-15" transform="translate(0.000000, 1.000000)">
                    <path d="M27.0424508,2.0594902 C21.6401524,2.65086275 16.5242222,5.45478431 13.1574603,9.67086275 C9.79327831,13.8869412 8.22470265,19.459098 8.90321481,24.786549 C9.27471958,27.7026275 10.3453757,30.6136078 12.4170307,32.719098 C14.1017016,34.4320392 16.3333101,35.5077255 18.5649185,36.4279216 C21.3254053,37.5647843 24.2200466,38.5283137 27.2127238,38.6149804 C31.9777884,38.7500784 36.7505926,36.4941961 39.6349143,32.7445882 C43.9459175,27.1341961 43.6801884,19.1583137 41.1880106,12.558902 C40.2721481,10.1347843 39.0518582,7.75909804 37.1427365,5.98752941 C34.4286878,3.46654902 30.6568825,2.4494902 27.0424508,2.0594902" id="Fill-1" fill="#FFFFFF"></path>
                    <path d="M1.98497058,114.891843 C0.547969524,94.3212549 3.71607958,73.4498824 11.1977727,54.1996863 C12.6321939,50.5087059 14.2807462,46.7896863 17.0541325,43.9373333 C19.8275187,41.0849804 23.9605092,39.2318431 27.8638891,40.1087059 C33.6970298,41.421451 36.5736119,47.8016471 38.3924372,53.4324314 C44.8782912,73.4983137 48.9596838,94.3212549 49.7310722,115.786549 C36.3620605,115.908902 22.990469,115.735569 9.63177693,115.266549 C7.11380021,115.177333 4.53648593,115.085569 1.98497058,114.891843" id="Fill-3" fill="#ACD4F7"></path>
                    <path d="M41.9462415,15.0388431 C41.3219071,13.2698235 38.6362372,13.1398235 37.7384341,14.758451 C36.9051283,16.7288431 37.7719727,18.9770784 37.5320425,21.0494314 C37.6532976,21.4190392 36.6161801,25.1992353 36.009905,25.9766863 C35.8009335,26.331 36.1904976,25.7982549 36.327232,25.6351176 C36.1569589,25.8441373 35.8757505,26.2188431 35.7028976,26.458451 C35.6177611,26.5578627 35.5326246,26.6598235 35.4423283,26.7541373 C34.0182267,28.151 32.5373674,29.4866863 31.0642478,30.8274706 C28.4250161,32.2982549 29.0338711,31.9541373 26.7816235,32.7315882 C26.2011473,32.8998235 25.6077716,33.0451176 25.0118161,33.1496275 C24.9602182,33.1547255 24.9240997,33.1572745 24.8621822,33.1623725 C22.8730838,33.0757059 20.8788256,33.2796275 18.894887,33.1062941 C18.8045907,33.093549 18.7426732,33.085902 18.6884954,33.0782549 C17.6436383,32.9100196 16.5626626,32.6602157 15.6184214,33.2592353 C13.4151917,34.4368824 13.8744129,37.9774706 16.3175727,38.5586471 C19.0084023,39.2086471 21.7637293,40.0600196 24.5577547,39.8178627 C28.0070732,39.5196275 31.2087219,37.8933529 34.157541,36.1931569 C42.2558288,32.0892353 44.3274838,21.5949216 41.9462415,15.0388431" id="Fill-5" fill="#000000"></path>
                    <path d="M50.6407429,110.599039 C50.6226836,110.456294 50.6020444,110.300804 50.5788254,110.140216 C50.5814053,110.132569 50.5814053,110.124922 50.5839852,110.099431 C50.369854,106.291196 50.2537587,102.482961 50.2898772,98.6696275 C50.0060889,95.4272745 48.6464847,86.8039412 47.101128,80.0108039 C45.6770265,73.648451 44.0155746,67.3574706 42.0238963,61.1429608 C40.3650243,55.7415882 38.8790053,50.2306078 36.2371937,45.1988431 C35.5354624,43.7917843 34.6299196,42.4994314 33.6263407,41.2886471 C33.0794032,40.5366863 32.2847958,39.9147255 31.304436,39.9453137 C29.1141058,39.8815882 27.9015556,42.7543333 29.5036698,44.2429608 C36.9208656,53.3888431 37.4549037,69.2819804 38.9564021,80.0694314 C39.4672212,86.7529608 39.7535894,85.5676667 40.0038392,89.9672745 C40.300527,93.3090392 40.2360296,96.6839412 40.5765757,100.007863 C40.8681037,101.310412 41.5491958,105.880804 41.9387598,107.272569 C42.0342159,108.491 42.2302878,109.704333 42.2354476,110.927863 C41.5001778,113.025706 42.5992127,115.750608 44.786963,116.477078 C47.5809884,117.853549 51.1722011,115.421784 51.0303069,112.362961 C51.0380466,111.761392 50.8935725,111.152176 50.6407429,110.599039" id="Fill-7" fill="#000000"></path>
                    <g id="Group-11" transform="translate(6.337566, 0.352275)">
                        <mask id="mask-2" fill="white">
                            <use xlink:href="#path-1"></use>
                        </mask>
                        <g id="Clip-10"></g>
                        <path d="M21.6271968,3.90115686 C18.3094529,3.90115686 14.8756138,5.11194118 12.0325704,7.31939216 C9.10955026,9.58547059 6.79280529,12.8737059 5.3274254,16.8246863 C4.48122011,19.1111569 4.09165608,21.1376275 4.13809418,23.0137059 C4.1742127,24.5507647 4.50959894,26.1948824 5.16489206,28.0429216 C6.17621058,30.8952745 7.51259577,32.8809608 9.25402434,34.1146863 C10.0976497,34.7162549 11.1425069,35.2133137 12.5459693,35.6823333 C17.1691397,37.2193922 22.1741344,37.1888039 26.2735862,35.5956667 C30.6155481,33.9056667 33.9848899,30.3829216 35.0710254,26.3988039 C35.4089915,25.1421373 35.5741048,23.7095882 35.5715546,22.0170392 C35.5637852,17.6633137 34.4673302,13.7046863 32.398255,10.5693922 C31.1960243,8.74939216 27.8705407,4.46194118 22.9506825,3.96743137 C22.5121005,3.92154902 22.0709386,3.90115686 21.6271968,3.90115686 M19.4678254,40.6911569 C16.7408772,40.6911569 13.9571714,40.2501765 11.2895608,39.3605686 C9.50427407,38.764098 8.12919048,38.1013529 6.96049841,37.2703725 C4.54313757,35.5548824 2.74237143,32.9548824 1.45500423,29.3250784 C0.66297672,27.0895882 0.255353439,25.0554706 0.20633545,23.1080196 C0.149577778,20.7348824 0.616538624,18.2444902 1.63817672,15.491549 C3.35380635,10.8599804 6.10913333,6.97782353 9.60488995,4.26566667 C13.6217852,1.15076471 18.6370995,-0.365901961 23.3479862,0.103117647 L23.3479862,0.103117647 C27.9995354,0.572137255 32.4988709,3.61311765 35.6902,8.44860784 C38.1746381,12.2160588 39.492964,16.9062549 39.5033072,22.0093922 C39.5058635,24.0486078 39.2968921,25.8150784 38.8634698,27.4056667 C37.4651672,32.5546863 33.1928624,37.0766471 27.7131672,39.2076275 C25.1693915,40.1966471 22.3521471,40.6911569 19.4678254,40.6911569" id="Fill-9" fill="#000000" mask="url(#mask-2)"></path>
                    </g>
                    <g id="Group-14" transform="translate(0.000000, 37.587569)">
                        <mask id="mask-4" fill="white">
                            <use xlink:href="#path-3"></use>
                        </mask>
                        <g id="Clip-13"></g>
                        <path d="M4.26146921,75.9178627 C12.3236385,76.8227647 38.1019412,76.4964902 48.4240978,76.1574706 C47.9519771,56.2725686 44.4716999,36.7929608 38.0709824,18.225902 C35.1221634,9.66629412 31.6418861,5.04237255 27.4366586,4.08903922 C23.6338946,3.23001961 19.8724089,5.66433333 17.6227412,8.2337451 C14.7409994,11.5194314 12.9815115,15.9062941 11.508392,20.1529608 C5.46627979,37.601 2.96894222,56.8486471 4.26146921,75.9178627 M24.4672004,80.3913922 C14.7074607,80.3913922 5.33470519,80.1823725 2.01954116,79.5068824 C1.1630163,79.331 0.525782434,78.6172745 0.456125291,77.7557059 C-1.12276995,57.6617843 1.41326603,37.3078627 7.79076444,18.8962941 C9.39029884,14.2749216 11.3303793,9.48021569 14.6507031,5.69237255 C18.4766861,1.32845098 23.7138713,-0.738803922 28.3138226,0.306294118 C35.8316343,2.00903922 39.6060195,10.6349216 41.7911898,16.9743333 C48.5272935,36.5176667 52.0927073,57.0474706 52.3896067,78.0004118 C52.4048745,79.0506078 51.5689888,79.9223725 50.5086523,79.9682549 C46.3834015,80.1390392 35.1918205,80.3913922 24.4672004,80.3913922" id="Fill-12" fill="#000000" mask="url(#mask-4)"></path>
                    </g>
                </g>
                <g id="Group-14" transform="translate(64.000000, 0.000000)">
                    <path d="M27.4730351,2.33327451 C21.0516785,5.07856863 14.457469,8.68798039 11.2841992,14.8489608 C8.43341608,20.3854314 9.01131238,27.4589608 12.6438034,32.5289608 C16.2737145,37.5989608 22.7724679,40.484451 29.0312912,39.9007255 C33.5977039,39.4724902 38.0402817,37.2140588 40.715632,33.5307255 C43.5302965,29.6562157 44.1984891,24.5607255 43.4735388,19.8424902 C42.8569441,15.8277843 41.2522499,11.9022941 38.5175621,8.8715098 C35.7802944,5.84072549 31.8562753,3.77601961 27.4730351,2.33327451" id="Fill-1" fill="#FFFFFF"></path>
                    <path d="M21.5697213,42.0171765 C15.2773594,44.8797255 12.0473319,51.7595294 9.83120275,58.2442353 C3.70137418,76.1867843 1.37688952,95.388549 3.19055513,114.238549 C3.30149058,114.855412 3.40984614,115.469725 3.52078159,116.084039 C3.86648741,116.137569 4.19671386,116.29051 4.45728317,116.519922 C4.45728317,116.519922 50.1781678,116.751882 50.3149022,116.078941 C49.8402017,94.4020784 47.7401678,72.2995294 38.9143498,52.4477647 C37.4102715,49.0652157 35.6378842,45.6622745 32.7613022,43.3018824 C29.8873001,40.9389412 25.7801086,40.1028627 21.5697213,42.0171765" id="Fill-3" fill="#FFFFFF"></path>
                    <path d="M43.9219244,17.2445294 C43.3853065,15.7278627 41.0788811,15.6157059 40.3100726,17.0049216 C39.543844,20.0178627 40.0882017,20.8947255 38.8937107,23.8464902 C38.4061107,25.5951176 34.3066588,29.5511961 31.375899,30.971 C30.7799435,31.2921765 27.3125657,32.4876667 25.8549255,32.3729608 C20.8344514,32.2480588 20.3442715,32.2174706 16.1313043,31.9268824 C14.8361975,31.7153137 13.5281911,31.2029608 12.2253446,31.3253137 C9.23008741,31.5853137 8.94113926,36.0486471 11.84868,36.7700196 C15.8010779,37.6443333 18.5409255,39.1176667 20.429408,39.1482549 C24.549499,39.5229608 28.9198398,39.6580588 32.7277636,37.8125686 C37.0026483,35.4241373 40.3384514,31.3100196 42.4075266,26.9588431 C43.274371,24.0096275 44.4327435,20.2778627 43.9219244,17.2445294" id="Fill-5" fill="#000000"></path>
                    <path d="M49.3559556,108.71049 C49.0437884,101.965784 48.1640444,96.4471569 47.7486815,93.1181373 C47.5268106,90.3320588 46.0253122,78.912451 44.1574688,71.9995098 C41.8226646,63.3736275 39.5704169,54.6559804 36.2449333,46.3436275 C35.8373101,45.4642157 35.326491,44.6383333 34.7331153,43.8685294 C34.0442836,43.0987255 33.572163,42.000098 32.5247259,41.6687255 C30.0325481,40.4681373 27.3081799,43.5397059 28.7967788,45.8516667 C31.4076317,49.2291176 31.7481778,51.6353922 32.9529884,56.7767647 C34.1758582,62.8536275 35.0607619,68.3773529 35.4838646,71.8389216 C35.4348466,71.4718627 35.3858286,71.1073529 35.3342307,70.7402941 C35.7315344,76.0983333 36.6473968,83.8193137 37.0911386,86.6436275 C37.6716148,94.2932353 37.9244444,101.97598 38.7319513,109.602647 C38.8893249,110.252647 39.031219,110.910294 39.2221312,111.555196 C39.2247111,111.575588 39.2298709,111.598529 39.2324508,111.618922 C39.2866286,111.96049 39.3356466,112.302059 39.3872444,112.641078 C39.3820847,112.633431 39.4027238,112.796569 39.4491619,113.048922 C39.4749608,113.212059 39.5033397,113.377745 39.5265587,113.543431 C39.5239788,113.52049 39.5213989,113.507745 39.518819,113.484804 C39.5265587,113.538333 39.5342984,113.584216 39.5420381,113.642843 C39.5239788,113.507745 39.5084995,113.393039 39.4930201,113.28598 C39.4904402,113.268137 39.4878603,113.245196 39.4852804,113.227353 C39.5910561,113.734608 39.7793884,114.440686 40.0476974,114.863824 C40.2128106,115.113627 40.3882434,115.358333 40.5739958,115.595392 C41.2138095,116.706765 42.274146,117.512255 43.4995958,117.907353 C43.7782243,117.948137 43.982036,117.978725 44.1445693,118.001667 C44.0078349,117.983824 43.8453016,117.963431 43.6311704,117.937941 C47.4210349,118.858137 49.6965016,115.646373 49.2579196,112.816961 C49.4023937,111.471078 49.1366646,110.056373 49.3559556,108.71049" id="Fill-7" fill="#000000"></path>
                    <g id="Group-11" transform="translate(6.337566, 0.473353)">
                        <mask id="mask-6" fill="white">
                            <use xlink:href="#path-5"></use>
                        </mask>
                        <g id="Clip-10"></g>
                        <path d="M21.6416442,4.78109804 C18.3239003,4.78109804 14.895221,5.99188235 12.0495977,8.19933333 C9.12915746,10.4654118 6.80983259,13.7536471 5.3444527,17.7071765 C4.49566751,19.991098 4.10868339,22.0150196 4.15512148,23.8936471 C4.19124,25.4307059 4.52662624,27.0748235 5.18191937,28.9203137 C6.19323788,31.7726667 7.53220296,33.760902 9.27105164,34.9946275 C10.1198368,35.5961961 11.164694,36.0958039 12.5604167,36.5597255 C17.1810072,38.1018824 22.1860019,38.0687451 26.2906135,36.4730588 C30.6351553,34.7830588 34.0044971,31.2603137 35.0854728,27.2787451 C35.4260188,26.0246275 35.5911321,24.5920784 35.5885819,22.8944314 C35.5808125,18.5432549 34.4843575,14.5846275 32.4152823,11.4493333 C31.2130516,9.62678431 27.8901479,5.34188235 22.9677098,4.84737255 C22.5291278,4.8014902 22.085386,4.78109804 21.6416442,4.78109804 M19.4848527,41.571098 C16.7579046,41.571098 13.9716188,41.1275686 11.3040083,40.2379608 C9.52904106,39.6465882 8.15395746,38.9838431 6.97752571,38.1477647 C4.56274476,36.4348235 2.76197862,33.8348235 1.47203153,30.2050196 C0.680004021,27.9695294 0.272380741,25.9379608 0.223362751,23.9879608 C0.166605079,21.6148235 0.633565926,19.1218824 1.65520402,16.3689412 C3.37341354,11.7373725 6.12874053,7.85776471 9.62191725,5.14560784 C13.6413924,2.02560784 18.6592866,0.511490196 23.3650135,0.983058824 C28.0191426,1.44952941 32.5184781,4.4905098 35.7072273,9.32854902 C38.1916654,13.093451 39.5099913,17.7836471 39.5203345,22.8893333 C39.5228908,24.9336471 39.3139194,26.7001176 38.8804971,28.2856078 C37.4847744,33.4320784 33.2098897,37.9540392 27.7301945,40.0850196 C25.1864188,41.0740392 22.3665945,41.571098 19.4848527,41.571098" id="Fill-9" fill="#000000" mask="url(#mask-6)"></path>
                    </g>
                    <path d="M4.26946688,114.361157 C20.7085526,115.342529 35.1972383,115.480176 48.442415,114.781745 C47.9728743,94.881549 44.492597,75.3891961 38.0892997,56.8144902 C35.1379007,48.2548824 31.6602034,43.6309608 27.452396,42.6776275 C23.6522119,41.8186078 19.8907261,44.2529216 17.6384785,46.8223333 C14.7567367,50.1105686 12.9972489,54.4948824 11.5267092,58.741549 C5.49749651,76.1437059 2.99757905,95.3378235 4.26946688,114.361157 M31.1880828,119.099784 C22.2023113,119.099784 12.6334838,118.778608 2.3087473,118.131157 C1.33096741,118.06998 0.549259471,117.307824 0.47444254,116.344294 C-1.12767175,95.9623333 1.33870709,76.159 7.80908169,57.4848824 C9.40861608,52.8660588 11.3461166,48.0688039 14.6690203,44.2784118 C18.4950034,39.9170392 23.7321886,37.8472353 28.3321399,38.8923333 C35.8499515,40.5976275 39.6243367,49.2235098 41.8069272,55.5629216 C48.5456108,75.1011569 52.1110246,95.6335098 52.4078638,116.589 C52.4206119,117.623902 51.6079452,118.490569 50.5605081,118.551745 C44.3868214,118.918804 37.9525653,119.099784 31.1880828,119.099784" id="Fill-12" fill="#000000"></path>
                </g>
            </g>
        </g>
    </g>
</svg>