<?xml version="1.0" encoding="UTF-8"?>
<svg width="48px" height="48px" viewBox="0 0 48 48" version="1.1" xmlns="http://www.w3.org/2000/svg" xmlns:xlink="http://www.w3.org/1999/xlink">
    <title>Group</title>
    <g id="Page-1" stroke="none" stroke-width="1" fill="none" fill-rule="evenodd">
        <g id="Group">
            <rect id="Rectangle" x="0" y="0" width="48" height="48"></rect>
            <g id="mysql" transform="translate(0.000000, 8.000000)" fill-rule="nonzero">
                <path d="M10.6007905,29.0769231 L8.89328061,29.0769231 C8.82213435,26 8.67984186,23 8.39525689,20.3076923 L8.39525689,20.3076923 L5.83399208,29.0769231 L4.48221342,29.0769231 L1.92094861,20.2307693 L1.92094861,20.2307693 C1.70750988,22.8461539 1.63636363,25.7692309 1.56521739,29 L0,29 C0.0711462449,25.0769231 0.355731224,21.3846154 0.782608693,18 L2.91699603,18 L5.4071146,26.0769231 L5.4071146,26.0769231 L7.82608693,18 L9.81818179,18 C10.3162055,22.0769231 10.5296442,25.6923077 10.6007905,29.0769231 L10.6007905,29.0769231 Z M18,20.923077 C17.2885375,25 16.3636363,27.923077 15.2252963,29.8461539 C14.3715415,31.3076923 13.375494,32 12.3083004,32 C12.0237154,32 11.6679841,31.923077 11.2411067,31.6923077 L11.2411067,30.6923077 C11.4545454,30.6923077 11.6679841,30.7692309 11.9525691,30.7692309 C12.4505928,30.7692309 12.8774703,30.6153847 13.1620553,30.3076923 C13.5177866,29.923077 13.7312252,29.5384616 13.7312252,29.0769231 C13.7312252,28.7692309 13.5889328,28.1538461 13.3043478,27.2307693 L11.4545454,20.923077 L13.1620553,20.923077 L14.5138339,25.6153846 C14.7984189,26.6923077 14.9407114,27.4615384 14.8695652,27.8461539 C15.5810276,25.6923077 16.1501976,23.3846154 16.4347826,20.923077 L18,20.923077 L18,20.923077 L18,20.923077 Z" id="Shape" fill="#5D87A1"></path>
                <path d="M42,29.4939025 L36.8552633,29.4939025 L36.8552633,18.0792682 L38.5953948,18.0792682 L38.5953948,28.0670731 L42,28.0670731 L42,29.4939025 Z M35.4934211,29.7317073 L33.4506579,28.7012194 C33.6019737,28.5426829 33.8289474,28.3841463 33.9802632,28.2256097 C34.8125,27.1951219 35.2664474,25.609756 35.2664474,23.6280488 C35.2664474,19.9024389 33.8289474,18 31.0296053,18 C29.6677631,18 28.6085527,18.4756097 27.7763158,19.4268292 C26.944079,20.457317 26.4901317,22.0426829 26.4901317,24.0243903 C26.4901317,26.0060975 26.868421,27.5121951 27.6250001,28.3841463 C28.3059211,29.2560975 29.3651316,29.652439 30.7269737,29.652439 C31.256579,29.652439 31.7105264,29.5731707 32.1644737,29.4146341 L34.7368421,31 L35.4934211,29.7317073 Z M28.9868421,27.1951219 C28.5328947,26.4817073 28.3059211,25.2926829 28.3059211,23.6280488 C28.3059211,20.7743901 29.1381579,19.347561 30.8026316,19.347561 C31.6348684,19.347561 32.3157895,19.6646341 32.694079,20.3780488 C33.1480263,21.0914634 33.3750001,22.2804878 33.3750001,23.9451219 C33.3750001,26.7987804 32.5427632,28.3048781 30.8782895,28.3048781 C30.0460527,28.2256097 29.4407896,27.9085366 28.9868421,27.1951219 L28.9868421,27.1951219 Z M25.8092106,26.3231707 C25.8092106,27.2743903 25.506579,28.0670731 24.825658,28.7012194 C24.1447369,29.3353659 23.2368421,29.652439 22.1019737,29.652439 C21.0427632,29.652439 19.9835526,29.3353659 19,28.6219512 L19.4539473,27.6707316 C20.2861842,28.1463415 21.118421,28.3048781 21.7993421,28.3048781 C22.4802632,28.3048781 22.9342105,28.1463415 23.3125,27.8292682 C23.6907896,27.5121951 23.9177631,27.1158537 23.9177631,26.5609756 C23.9177631,25.847561 23.4638158,25.2926829 22.631579,24.8170731 C21.8750001,24.3414634 20.3618421,23.4695122 20.3618421,23.4695122 C19.5296053,22.8353657 19.1513158,22.2012194 19.1513158,21.0914634 C19.1513158,20.1402438 19.4539473,19.4268292 20.0592106,18.8719511 C20.6644737,18.3170731 21.4967106,18 22.4802632,18 C23.4638158,18 24.3717105,18.3170731 25.2039473,18.8719511 L24.75,19.8231707 C24.0690789,19.5060975 23.3125,19.347561 22.631579,19.347561 C22.1019737,19.347561 21.6480263,19.5060975 21.3453948,19.7439023 C21.0427632,20.0609756 20.8914474,20.3780488 20.8914474,20.8536585 C20.8914474,21.4878048 21.3453948,22.1219512 22.1776316,22.597561 C22.9342105,23.0731707 24.5230264,23.9451219 24.5230264,23.9451219 C25.3552633,24.5 25.8092106,25.2134147 25.8092106,26.3231707 L25.8092106,26.3231707 Z" id="Shape" fill="#F8981D"></path>
                <path d="M45.5167786,13.8217526 C44.4785236,13.8217526 43.6627519,13.8937914 42.9953024,14.1819464 C42.7728192,14.253985 42.4761749,14.253985 42.4761749,14.4701013 C42.5503359,14.5421401 42.6244971,14.7582563 42.698658,14.9023338 C42.8469802,15.1184501 43.1436245,15.4786439 43.3661077,15.6947601 C43.6627519,15.9108764 43.8852352,16.1269925 44.1818794,16.2710701 C44.7010069,16.5592251 45.2201344,16.7753413 45.7392619,17.0634963 C46.0359061,17.2075739 46.3325504,17.4957289 46.5550335,17.6398063 C46.7033558,17.711845 46.7775167,17.9279613 47,18 L47,17.9279613 C46.9258389,17.7838838 46.8516779,17.6398063 46.7775167,17.4957289 L46.4067114,17.1355351 C46.0359061,16.6312638 45.5909396,16.1990313 45.0718123,15.9108764 C44.6268458,15.6227214 43.736913,15.2625276 43.5885909,14.8302951 L43.5885909,14.8302951 C43.8852352,14.8302951 44.1818794,14.6862176 44.4785236,14.6141788 C44.9234902,14.4701013 45.2942954,14.5421401 45.7392619,14.3980625 C45.961745,14.3260238 46.1842283,14.253985 46.3325504,14.253985 L46.3325504,14.1099075 C46.1100671,13.8937914 45.961745,13.6056364 45.6651008,13.3895201 C44.9976511,12.8132101 44.2560405,12.3089388 43.5144298,11.8767064 C43.1436245,11.6605901 42.6244971,11.4444739 42.1795307,11.2283576 C42.0312086,11.1563189 41.7345642,11.0842801 41.6604032,11.0122414 C41.4379199,10.7240864 41.2895978,10.3638926 41.1412757,10.0757376 C40.7704703,9.35535012 40.3996651,8.63496263 40.1030207,7.91457513 C39.8805376,7.41030388 39.7322155,6.97807139 39.4355712,6.47380014 C38.100672,4.38467641 36.6916117,3.08797891 34.4667796,1.79128142 C34.0218133,1.50312643 33.4285248,1.43108767 32.8352363,1.28701019 L31.8711424,1.21497143 C31.6486592,1.14293268 31.4261759,0.854777684 31.2778538,0.782738934 C30.5362432,0.350506437 28.6822165,-0.658036056 28.088928,0.638661435 C27.7181226,1.43108767 28.6080555,2.22351393 28.9046997,2.65574642 C29.127183,2.94390142 29.4238272,3.23205641 29.5721493,3.59225016 C29.6463103,3.80836641 29.7204715,4.02448267 29.7946324,4.24059891 C30.0171157,4.81690891 30.1654378,5.3932189 30.4620821,5.89749015 C30.6104042,6.18564515 30.7587263,6.4017614 30.9070486,6.68991639 C31.0553707,6.76195515 31.2778538,6.83399389 31.2778538,7.05011014 C31.1295317,7.26622638 31.0553707,7.69845889 30.9812096,7.98661388 C30.5362432,9.42738887 30.6845653,11.1563189 31.3520149,12.1648613 C31.574498,12.4530164 32.0194646,13.1734038 32.6869142,12.8852488 C33.2802027,12.6691326 33.1318805,11.9487451 33.2802027,11.3003964 C33.3543637,11.1563189 33.2802027,11.0842801 33.3543637,10.9402026 L33.3543637,10.9402026 C33.5026858,11.3003964 33.725169,11.6605901 33.8734912,11.9487451 C34.2442965,12.5250551 34.9859071,13.1734038 35.5791958,13.6056364 C35.87584,13.8217526 36.0983231,14.1819464 36.5432896,14.3260238 L36.5432896,14.253985 L36.5432896,14.253985 C36.4691285,14.1099075 36.3208064,14.1099075 36.2466452,14.0378689 C36.0241621,13.8217526 35.7275179,13.5335976 35.5791958,13.3174813 C35.0600683,12.5970939 34.5409408,11.8767064 34.1701354,11.0122414 C33.9476523,10.6520476 33.7993302,10.2198151 33.651008,9.78758261 C33.5768469,9.64350513 33.5768469,9.42738887 33.4285248,9.35535012 C33.2060415,9.64350513 32.9835584,9.85962137 32.8352363,10.2198151 C32.612753,10.7240864 32.5385919,11.4444739 32.4644309,12.0928226 L32.3902698,12.0928226 C31.9453034,12.0207839 31.8711424,11.5885514 31.6486592,11.2283576 C31.2778538,10.3638926 31.2036928,8.92311763 31.5003371,7.91457513 C31.574498,7.62642013 31.9453034,6.83399389 31.7969813,6.5458389 C31.7228203,6.32972264 31.4261759,6.18564515 31.3520149,5.96952889 C31.2036928,5.75341265 30.9812096,5.46525766 30.9070486,5.17710265 C30.6104042,4.45671516 30.4620821,3.73632766 30.0912768,3.01594017 C29.9429547,2.65574642 29.6463103,2.36759142 29.4238272,2.07943643 C29.201344,1.71924268 28.9046997,1.50312643 28.6822165,1.07089393 C28.6080555,0.926816433 28.5338943,0.710700185 28.6080555,0.566622686 C28.6080555,0.494583936 28.6822165,0.422545187 28.7563776,0.422545187 C29.0530218,0.494583936 29.5721493,0.638661435 29.7204715,0.710700185 C30.1654378,0.926816433 30.6104042,1.07089393 30.9812096,1.35904893 C31.1295317,1.50312643 31.3520149,1.71924268 31.574498,1.79128142 L31.8711424,1.79128142 C32.3161088,1.86332018 32.7610752,1.79128142 33.1318805,1.93535892 C33.7993302,2.15147517 34.3926186,2.43963017 34.9859071,2.79982392 C36.6916117,3.80836641 38.0265108,5.32118015 38.9906047,7.05011014 C39.1389268,7.33826514 39.213088,7.62642013 39.3614101,7.91457513 C39.6580543,8.49088513 39.9546986,9.13923388 40.251343,9.71554387 C40.5479872,10.2918539 40.7704703,10.8681639 41.1412757,11.3724351 C41.3637589,11.6605901 42.1053696,11.8046676 42.4761749,11.8767064 C42.698658,12.0207839 43.1436245,12.0928226 43.3661077,12.2369001 C43.811074,12.5250551 44.2560405,12.8132101 44.6268458,13.1013651 C44.7751679,13.2454426 45.4426175,13.6056364 45.5167786,13.8217526 M32.3902698,3.01594017 C32.2419477,3.01594017 32.0194646,3.01594017 31.8711424,3.08797891 L31.8711424,3.08797891 L31.8711424,3.08797891 C31.9453034,3.30409517 32.1677867,3.44817266 32.3161088,3.59225016 C32.3902698,3.80836641 32.5385919,4.02448267 32.612753,4.16856015 L32.612753,4.16856015 C32.7610752,4.02448267 32.9093973,3.88040516 32.9093973,3.52021142 C32.8352363,3.44817266 32.7610752,3.37613391 32.7610752,3.30409517 C32.6869142,3.16001767 32.4644309,3.08797891 32.3902698,3.01594017" id="Shape" fill="#5D87A1"></path>
                <path d="M45.7894737,30 L46,30 L46,28 L45.7368421,28 L45.5263158,29.3333333 L45.2631579,28 L45,28 L45,30 L45.1578947,30 L45.1578947,28.5555555 L45.1578947,28.5555555 L45.4210527,30 L45.5789474,30 L45.8421053,28.5555555 L45.7894737,30 L45.7894737,30 Z M44.2631579,30 L44.4736842,30 L44.4736842,28.3333334 L44.7368421,28.3333334 L44.7368421,28 L44,28 L44,28.3333334 L44.2631579,28.3333334 L44.2631579,30 L44.2631579,30 Z" id="Shape" fill="#F8981D"></path>
            </g>
        </g>
    </g>
</svg>