<?xml version="1.0" encoding="UTF-8"?>
<svg width="40px" height="40px" viewBox="0 0 40 40" version="1.1" xmlns="http://www.w3.org/2000/svg" xmlns:xlink="http://www.w3.org/1999/xlink">
    <!-- Generator: Sketch 54.1 (76490) - https://sketchapp.com -->
    <title>Artboard Copy 15</title>
    <desc>Created with Sketch.</desc>
    <g id="Artboard-Copy-15" stroke="none" stroke-width="1" fill="none" fill-rule="evenodd">
        <g id="laravel-seeklogo.com" transform="translate(3.000000, 3.000000)" fill="#F35045" fill-rule="nonzero">
            <path d="M21.3090573,27.625 C21.5746823,28.0086511 21.7369792,27.9791667 21.9435469,27.890625 C22.1501145,27.8020833 32.7752031,24.2161458 33.0997969,24.0981198 C33.4243906,23.9800938 33.3211511,23.8767656 33.2179114,23.7143802 C33.1146719,23.5519948 29.5729167,18.7413489 29.3958333,18.4609375 C29.21875,18.1805261 29.1302083,18.2395833 28.8497969,18.328125 L17.5865886,21.2588542 C17.5865886,21.2588542 21.0434323,27.2413489 21.3090573,27.625 L21.3090573,27.625 Z" id="Path"></path>
            <path d="M34,22.7262552 L34,17.0951823 C32.7327917,17.4328802 31.1300989,17.8596511 30.4973802,18.0279688 C31.4518594,19.3050937 32.9441406,21.3037448 34,22.7262552 L34,22.7262552 Z" id="Path"></path>
            <path d="M30.4864895,11.0926771 C30.3128594,11.1320781 26.4692656,11.8266875 26.2325052,11.8582083 C25.9957448,11.8897292 26.0746355,12.0239583 26.169375,12.158099 L29.5517552,16.7989219 C29.5517552,16.7989219 33.6873594,15.7729011 33.9399688,15.7176511 C33.9604219,15.7131355 33.9804323,15.7083542 34,15.7034844 L34,15.0890052 C33.2482813,14.1357656 31.2002239,11.5405208 31.0232292,11.2980052 C30.810198,11.0059063 30.6601198,11.053276 30.4864895,11.0926771 L30.4864895,11.0926771 Z" id="Path"></path>
            <path d="M6.30275,3.80295313 C7.13504167,3.76514583 7.21101042,3.95453645 7.5766875,4.49676563 L16.7634167,19.8554688 L28.3145625,17.0882761 C27.6745833,16.1810781 24.7690886,12.0618542 24.488323,11.6688177 C24.1726719,11.2268177 24.4962031,11.0215781 25.0092136,10.9348073 C25.5222239,10.8480365 29.9418698,10.1061458 30.3207395,10.0508958 C30.6996094,9.99564583 30.9995886,9.8615052 31.6151302,10.6033958 C31.930073,10.982974 32.9979739,12.3126927 34,13.5590937 L34,6.375 C34,4.61895312 33.3764895,3.117375 32.1295573,1.8704427 C30.882625,0.623510417 29.3810469,0 27.625,0 L6.375,0 C4.61895313,0 3.117375,0.623510417 1.8704427,1.8704427 C1.15520313,2.5856823 0.646177083,3.38503645 0.341151042,4.26779688 C2.42338542,4.09673437 5.72023438,3.82942708 6.30275,3.80295313 L6.30275,3.80295313 Z" id="Path"></path>
            <path d="M22.3508386,29.6920937 C21.3767917,29.9872031 20.9400156,30.1336511 20.3055261,29.2482344 C19.830323,28.5850573 17.2605781,23.9565417 16.0005417,21.674823 C13.6159375,22.2993958 9.2518073,23.4383958 7.99336458,23.7407656 C6.76502605,24.035875 6.2405052,23.2994739 6.03871875,22.8455208 C5.89722917,22.5272136 2.29623958,14.7633489 0,9.78172917 L0,27.625 C0,29.3811355 0.623510417,30.8825364 1.8704427,32.1295573 C3.117375,33.3764895 4.61895312,34 6.375,34 L27.625,34 C29.3810469,34 30.882625,33.3764895 32.1295573,32.1295573 C33.3764895,30.8825364 34,29.3811355 34,27.625 L34,25.5290417 C31.3914739,26.4831667 23.0071094,29.4932292 22.3508386,29.6920937 L22.3508386,29.6920937 Z" id="Path"></path>
            <path d="M8.02346875,21.9523125 C8.3686927,21.8733333 14.8384323,20.3249167 14.9765573,20.2953437 C15.1146823,20.2657708 15.2034011,20.1867917 15.055448,19.9304636 C14.9074948,19.6741355 6.43148958,5.04359895 6.43148958,5.04359895 C6.35321875,4.90928125 6.37553125,4.8645677 6.1629427,4.87572395 C5.973375,4.88572917 1.17742708,5.31365105 0.0670260417,5.4064427 C0.034265625,5.63735938 0.0145208333,5.87358855 0.00584375,6.11442188 C1.13306771,8.4219948 7.60254167,21.7646042 7.63884375,21.8733333 C7.67833333,21.9917136 7.6782448,22.0312031 8.02346875,21.9523125 L8.02346875,21.9523125 Z" id="Path"></path>
        </g>
    </g>
</svg>